<svg xmlns="http://www.w3.org/2000/svg" viewBox="0 0 512 512">
  <defs>
    <linearGradient id="logoGrad" x1="0%" y1="0%" x2="100%" y2="100%">
      <stop offset="0%" style="stop-color:#8b5cf6"/>
      <stop offset="50%" style="stop-color:#7c3aed"/>
      <stop offset="100%" style="stop-color:#6d28d9"/>
    </linearGradient>
    <linearGradient id="logoGradLight" x1="0%" y1="0%" x2="100%" y2="100%">
      <stop offset="0%" style="stop-color:#a78bfa"/>
      <stop offset="100%" style="stop-color:#8b5cf6"/>
    </linearGradient>
  </defs>
  
  <!-- Background rounded square -->
  <rect x="40" y="40" width="432" height="432" rx="96" fill="url(#logoGrad)"/>
  
  <!-- Speech bubble left (debate/opposition) -->
  <path d="M120 180 Q120 140 160 140 L220 140 Q240 140 240 160 L240 220 Q240 240 220 240 L200 240 L160 280 L160 240 Q120 240 120 220 Z" 
        fill="rgba(255,255,255,0.9)"/>
  
  <!-- Speech bubble right (AI response) -->
  <path d="M272 220 Q272 200 292 200 L352 200 Q392 200 392 220 L392 280 Q392 300 372 300 L352 300 L352 340 L312 300 L292 300 Q272 300 272 280 Z" 
        fill="rgba(255,255,255,0.6)"/>
  
  <!-- Neural node center (AI intelligence) -->
  <circle cx="256" cy="360" r="24" fill="rgba(255,255,255,0.95)"/>
  
  <!-- Connection lines (neural network) -->
  <line x1="180" y1="260" x2="232" y2="344" stroke="rgba(255,255,255,0.5)" stroke-width="4" stroke-linecap="round"/>
  <line x1="332" y1="300" x2="280" y2="344" stroke="rgba(255,255,255,0.5)" stroke-width="4" stroke-linecap="round"/>
  
  <!-- Small accent dots -->
  <circle cx="180" cy="180" r="8" fill="rgba(255,255,255,0.8)"/>
  <circle cx="352" cy="240" r="6" fill="rgba(255,255,255,0.6)"/>
</svg>